<svg width="120" height="32" viewBox="0 0 120 32" fill="none" xmlns="http://www.w3.org/2000/svg">
<rect x="0.72641" width="32" height="32" rx="6.03774" fill="#131E41"/>
<path d="M6.85847 25.1132V11.6573H9.80036L10.0818 13.4991H10.2608C10.5508 13.0557 10.8918 12.672 11.2841 12.348C11.6934 12.0239 12.1453 11.7767 12.6399 11.6061C13.1515 11.4356 13.6973 11.3503 14.2771 11.3503C15.1299 11.3503 15.8632 11.5208 16.4772 11.8619C17.1082 12.203 17.5942 12.7488 17.9353 13.4991H18.1144C18.4043 13.0557 18.7539 12.672 19.1632 12.348C19.5725 12.0239 20.0415 11.7767 20.5702 11.6061C21.0989 11.4356 21.6617 11.3503 22.2586 11.3503C23.1113 11.3503 23.8447 11.5038 24.4586 11.8108C25.0896 12.1177 25.5842 12.6208 25.9423 13.3201C26.3005 14.0022 26.4796 14.8891 26.4796 15.9806V25.1132H22.9237V16.6201C22.9237 16.1937 22.8726 15.8356 22.7702 15.5457C22.685 15.2387 22.557 14.9999 22.3865 14.8294C22.216 14.6418 22.0028 14.5054 21.747 14.4201C21.4911 14.3348 21.2183 14.2922 20.9284 14.2922C20.4508 14.2922 20.0245 14.4201 19.6493 14.6759C19.2741 14.9317 18.9756 15.2813 18.7539 15.7247C18.5493 16.1682 18.4469 16.6798 18.4469 17.2596V25.1132H14.8911V16.6201C14.8911 16.1937 14.8399 15.8356 14.7376 15.5457C14.6523 15.2387 14.5244 14.9999 14.3539 14.8294C14.1833 14.6418 13.9702 14.5054 13.7143 14.4201C13.4756 14.3348 13.2027 14.2922 12.8957 14.2922C12.4353 14.2922 12.0089 14.4201 11.6167 14.6759C11.2415 14.9317 10.943 15.2813 10.7213 15.7247C10.5166 16.1682 10.4143 16.6798 10.4143 17.2596V25.1132H6.85847Z" fill="white"/>
<path d="M43.221 25.307C41.7544 25.307 40.5094 25.0597 39.4861 24.5651C38.4629 24.0535 37.6869 23.2775 37.1582 22.2372C36.6295 21.1798 36.3652 19.8581 36.3652 18.272C36.3652 16.6519 36.6295 15.3302 37.1582 14.3069C37.6869 13.2666 38.4629 12.4991 39.4861 12.0045C40.5094 11.4929 41.7544 11.2371 43.221 11.2371C44.7218 11.2371 45.9753 11.4929 46.9815 12.0045C48.0048 12.4991 48.7808 13.2666 49.3095 14.3069C49.8381 15.3302 50.1025 16.6519 50.1025 18.272C50.1025 19.8581 49.8381 21.1798 49.3095 22.2372C48.7808 23.2775 48.0048 24.0535 46.9815 24.5651C45.9753 25.0597 44.7218 25.307 43.221 25.307ZM43.221 22.5442C44.0055 22.5442 44.628 22.3992 45.0885 22.1093C45.566 21.8194 45.9156 21.3759 46.1373 20.779C46.359 20.1821 46.4699 19.4488 46.4699 18.579V17.9651C46.4699 17.0953 46.359 16.3619 46.1373 15.765C45.9156 15.1681 45.566 14.7247 45.0885 14.4348C44.628 14.1278 44.0055 13.9743 43.221 13.9743C42.4536 13.9743 41.8311 14.1278 41.3536 14.4348C40.8931 14.7247 40.552 15.1681 40.3303 15.765C40.1086 16.3619 39.9978 17.0953 39.9978 17.9651V18.579C39.9978 19.4488 40.1086 20.1821 40.3303 20.779C40.552 21.3759 40.8931 21.8194 41.3536 22.1093C41.8311 22.3992 42.4536 22.5442 43.221 22.5442ZM56.7353 25.307C55.8826 25.307 55.1919 25.1535 54.6632 24.8465C54.1345 24.5395 53.7508 24.1302 53.512 23.6186C53.2733 23.0899 53.1539 22.5101 53.1539 21.879V14.2813H51.4911V11.5441H53.2818L53.9469 7.70684H56.7097V11.5441H59.1656V14.2813H56.7097V21.2907C56.7097 21.7 56.8035 22.0155 56.9911 22.2372C57.1787 22.4418 57.4857 22.5442 57.9121 22.5442H59.1656V24.8977C58.9609 24.9659 58.7222 25.0256 58.4493 25.0767C58.1764 25.145 57.8865 25.1961 57.5795 25.2302C57.2725 25.2814 56.9911 25.307 56.7353 25.307ZM61.4627 9.5743V6.5045H65.0186V9.5743H61.4627ZM61.4627 25V11.5441H65.0186V25H61.4627ZM74.4736 25.307C73.0069 25.307 71.7619 25.0597 70.7386 24.5651C69.7154 24.0535 68.9394 23.2775 68.4107 22.2372C67.882 21.1798 67.6177 19.8581 67.6177 18.272C67.6177 16.6519 67.882 15.3302 68.4107 14.3069C68.9394 13.2666 69.7154 12.4991 70.7386 12.0045C71.7619 11.4929 73.0069 11.2371 74.4736 11.2371C75.9743 11.2371 77.2278 11.4929 78.234 12.0045C79.2573 12.4991 80.0333 13.2666 80.562 14.3069C81.0907 15.3302 81.355 16.6519 81.355 18.272C81.355 19.8581 81.0907 21.1798 80.562 22.2372C80.0333 23.2775 79.2573 24.0535 78.234 24.5651C77.2278 25.0597 75.9743 25.307 74.4736 25.307ZM74.4736 22.5442C75.2581 22.5442 75.8805 22.3992 76.341 22.1093C76.8185 21.8194 77.1681 21.3759 77.3899 20.779C77.6116 20.1821 77.7224 19.4488 77.7224 18.579V17.9651C77.7224 17.0953 77.6116 16.3619 77.3899 15.765C77.1681 15.1681 76.8185 14.7247 76.341 14.4348C75.8805 14.1278 75.2581 13.9743 74.4736 13.9743C73.7061 13.9743 73.0836 14.1278 72.6061 14.4348C72.1456 14.7247 71.8045 15.1681 71.5828 15.765C71.3611 16.3619 71.2503 17.0953 71.2503 17.9651V18.579C71.2503 19.4488 71.3611 20.1821 71.5828 20.779C71.8045 21.3759 72.1456 21.8194 72.6061 22.1093C73.0836 22.3992 73.7061 22.5442 74.4736 22.5442ZM83.9715 25V11.5441H86.9134L87.1948 13.386H87.3739C87.6809 12.9425 88.0475 12.5588 88.4739 12.2348C88.9173 11.9107 89.4119 11.6635 89.9576 11.4929C90.5034 11.3224 91.1003 11.2371 91.7483 11.2371C92.6352 11.2371 93.4111 11.3991 94.0763 11.7232C94.7414 12.0472 95.253 12.5588 95.6111 13.258C95.9863 13.9573 96.1739 14.8697 96.1739 15.9953V25H92.6181V16.5581C92.6181 16.1317 92.5669 15.7736 92.4646 15.4836C92.3623 15.1767 92.2088 14.9294 92.0041 14.7418C91.8165 14.5371 91.5778 14.3922 91.2879 14.3069C90.9979 14.2216 90.6739 14.179 90.3158 14.179C89.7871 14.179 89.3095 14.3069 88.8832 14.5627C88.4568 14.8185 88.1243 15.1681 87.8855 15.6116C87.6467 16.055 87.5274 16.5666 87.5274 17.1464V25H83.9715ZM99.3604 25V6.5045H102.916V25H99.3604ZM108.125 29.8093C107.494 29.8093 106.965 29.7582 106.539 29.6559C106.129 29.5706 105.865 29.5109 105.746 29.4768V27.0721H107.306C107.732 27.0721 108.116 26.9698 108.457 26.7651C108.798 26.5775 109.097 26.3217 109.353 25.9977C109.608 25.6907 109.796 25.3581 109.915 25L104.646 11.5441H108.406L110.708 17.7604C110.811 18.0503 110.922 18.417 111.041 18.8604C111.177 19.2868 111.314 19.7387 111.45 20.2162C111.587 20.6767 111.698 21.086 111.783 21.4442H111.911C111.979 21.2054 112.056 20.924 112.141 20.6C112.226 20.2759 112.312 19.9434 112.397 19.6023C112.499 19.2612 112.593 18.9372 112.678 18.6302C112.781 18.3061 112.866 18.0248 112.934 17.786L114.853 11.5441H118.434L113.855 24.3605C113.599 25.1109 113.301 25.8101 112.96 26.4582C112.636 27.1233 112.252 27.7031 111.808 28.1977C111.365 28.7093 110.836 29.1016 110.222 29.3745C109.626 29.6644 108.926 29.8093 108.125 29.8093Z" fill="#131E41"/>
</svg>
