<?xml version="1.0" encoding="UTF-8"?>
<svg xmlns="http://www.w3.org/2000/svg" version="1.1" viewBox="0 0 120 32">
  <defs>
    <style>
      .cls-1 {
        font-family: MyriadPro-Regular, 'Myriad Pro';
        font-size: 27.7px;
      }

      .cls-2 {
        fill: #fff;
      }

      .cls-3 {
        fill: #131e41;
      }
    </style>
  </defs>
  <!-- Generator: Adobe Illustrator 28.7.1, SVG Export Plug-In . SVG Version: 1.2.0 Build 142)  -->
  <g>
    <g id="Layer_1">
      <rect class="cls-3" x=".7" width="32" height="32" rx="6" ry="6"/>
      <path class="cls-2" d="M6.9,25.1v-13.5h2.9l.3,1.8h.2c.3-.4.6-.8,1-1.2.4-.3.9-.6,1.4-.7.5-.2,1.1-.3,1.6-.3.9,0,1.6.2,2.2.5.6.3,1.1.9,1.5,1.6h.2c.3-.4.6-.8,1-1.2.4-.3.9-.6,1.4-.7.5-.2,1.1-.3,1.7-.3.9,0,1.6.2,2.2.5.6.3,1.1.8,1.5,1.5.4.7.5,1.6.5,2.7v9.1h-3.6v-8.5c0-.4,0-.8-.2-1.1,0-.3-.2-.5-.4-.7-.2-.2-.4-.3-.6-.4-.3,0-.5-.1-.8-.1-.5,0-.9.1-1.3.4-.4.3-.7.6-.9,1-.2.4-.3,1-.3,1.5v7.9h-3.6v-8.5c0-.4,0-.8-.2-1.1,0-.3-.2-.5-.4-.7-.2-.2-.4-.3-.6-.4-.2,0-.5-.1-.8-.1-.5,0-.9.1-1.3.4-.4.3-.7.6-.9,1-.2.4-.3,1-.3,1.5v7.9h-3.6Z"/>
      <text class="cls-1" transform="translate(34 25.3)"><tspan x="0" y="0">arty</tspan></text>
    </g>
  </g>
</svg>