<svg width="24" height="24" viewBox="0 0 24 24" fill="none" xmlns="http://www.w3.org/2000/svg">
<rect width="24" height="24" rx="4.5283" fill="#131E41"/>
<path d="M4.59904 18.5849V8.49296H6.80545L7.0165 9.87437H7.15081C7.36825 9.54181 7.62406 9.25401 7.91825 9.01099C8.22523 8.76796 8.56419 8.5825 8.93512 8.45459C9.31885 8.32668 9.72815 8.26272 10.163 8.26272C10.8026 8.26272 11.3526 8.39063 11.8131 8.64645C12.2863 8.90227 12.6508 9.31157 12.9067 9.87437H13.041C13.2584 9.54181 13.5206 9.25401 13.8276 9.01099C14.1346 8.76796 14.4863 8.5825 14.8828 8.45459C15.2794 8.32668 15.7015 8.26272 16.1491 8.26272C16.7887 8.26272 17.3387 8.37784 17.7991 8.60808C18.2724 8.83831 18.6433 9.21564 18.9119 9.74006C19.1806 10.2517 19.3149 10.9168 19.3149 11.7354V18.5849H16.648V12.2151C16.648 11.8953 16.6096 11.6267 16.5329 11.4093C16.4689 11.179 16.373 11 16.2451 10.872C16.1172 10.7313 15.9573 10.629 15.7654 10.5651C15.5735 10.5011 15.3689 10.4691 15.1514 10.4691C14.7933 10.4691 14.4735 10.5651 14.1921 10.7569C13.9107 10.9488 13.6869 11.211 13.5206 11.5436C13.3671 11.8761 13.2904 12.2598 13.2904 12.6947V18.5849H10.6235V12.2151C10.6235 11.8953 10.5851 11.6267 10.5084 11.4093C10.4444 11.179 10.3485 11 10.2206 10.872C10.0927 10.7313 9.9328 10.629 9.74094 10.5651C9.56187 10.5011 9.35722 10.4691 9.12698 10.4691C8.78163 10.4691 8.46186 10.5651 8.16767 10.7569C7.88628 10.9488 7.66244 11.211 7.49616 11.5436C7.34267 11.8761 7.26592 12.2598 7.26592 12.6947V18.5849H4.59904Z" fill="white"/>
</svg>
