<svg width="24" height="24" viewBox="0 0 24 24" fill="none" xmlns="http://www.w3.org/2000/svg">
<rect width="23.7757" height="24" rx="4.5283" fill="#131E41"/>
<path d="M4.56755 18.5849V8.49296H6.77396L6.98501 9.87437H7.11931C7.33675 9.54181 7.59257 9.25401 7.88676 9.01099C8.19374 8.76796 8.53269 8.5825 8.90363 8.45459C9.28735 8.32668 9.69666 8.26272 10.1315 8.26272C10.7711 8.26272 11.3211 8.39063 11.7816 8.64645C12.2548 8.90227 12.6194 9.31157 12.8752 9.87437H13.0095C13.2269 9.54181 13.4891 9.25401 13.7961 9.01099C14.1031 8.76796 14.4548 8.5825 14.8513 8.45459C15.2479 8.32668 15.67 8.26272 16.1176 8.26272C16.7572 8.26272 17.3072 8.37784 17.7677 8.60808C18.2409 8.83831 18.6118 9.21564 18.8805 9.74006C19.1491 10.2517 19.2834 10.9168 19.2834 11.7354V18.5849H16.6165V12.2151C16.6165 11.8953 16.5781 11.6267 16.5014 11.4093C16.4374 11.179 16.3415 11 16.2136 10.872C16.0857 10.7313 15.9258 10.629 15.7339 10.5651C15.5421 10.5011 15.3374 10.4691 15.12 10.4691C14.7618 10.4691 14.442 10.5651 14.1606 10.7569C13.8792 10.9488 13.6554 11.211 13.4891 11.5436C13.3356 11.8761 13.2589 12.2598 13.2589 12.6947V18.5849H10.592V12.2151C10.592 11.8953 10.5536 11.6267 10.4769 11.4093C10.4129 11.179 10.317 11 10.1891 10.872C10.0612 10.7313 9.90131 10.629 9.70945 10.5651C9.53038 10.5011 9.32572 10.4691 9.09549 10.4691C8.75014 10.4691 8.43037 10.5651 8.13618 10.7569C7.85478 10.9488 7.63094 11.211 7.46466 11.5436C7.31117 11.8761 7.23443 12.2598 7.23443 12.6947V18.5849H4.56755Z" fill="white"/>
</svg>
